RobotoSerifText-HairlineCond.ufo
<glyph name="two" format="2">
  <advance width="452"/>
  <unicode hex="0032"/>
  <outline>
    <contour>
      <point x="270" y="35" type="line" smooth="yes"/>
      <point x="339" y="35"/>
      <point x="367" y="42"/>
      <point x="370" y="78" type="curve" smooth="yes"/>
      <point x="378" y="164" type="line"/>
      <point x="403" y="164" type="line"/>
      <point x="403" y="0" type="line"/>
      <point x="44" y="0" type="line"/>
      <point x="44" y="40" type="line"/>
      <point x="203" y="166"/>
      <point x="345" y="281"/>
      <point x="345" y="440" type="curve" smooth="yes"/>
      <point x="345" y="545"/>
      <point x="297" y="589"/>
      <point x="224" y="589" type="curve" smooth="yes"/>
      <point x="160" y="589"/>
      <point x="113" y="554"/>
      <point x="79" y="511" type="curve"/>
      <point x="90" y="543"/>
      <point x="85" y="547"/>
      <point x="104" y="551" type="curve"/>
      <point x="104" y="454" type="line"/>
      <point x="60" y="454" type="line"/>
      <point x="60" y="544" type="line"/>
      <point x="89" y="575"/>
      <point x="146" y="618"/>
      <point x="224" y="618" type="curve" smooth="yes"/>
      <point x="321" y="618"/>
      <point x="385" y="553"/>
      <point x="385" y="440" type="curve" smooth="yes"/>
      <point x="385" y="275"/>
      <point x="217" y="131"/>
      <point x="68" y="25" type="curve"/>
      <point x="66" y="27"/>
      <point x="64" y="32"/>
      <point x="66" y="35" type="curve"/>
    </contour>
  </outline>
</glyph>
<glyph name="A" format="2">
  <advance width="549"/>
  <unicode hex="0041"/>
  <anchor x="274" y="721" name="top"/>
  <anchor x="473" y="0" name="right"/>
  <anchor x="274" y="0" name="bottom"/>
  <outline>
    <contour>
      <point x="145" y="298" type="line"/>
      <point x="144" y="269" type="line"/>
      <point x="397" y="269" type="line"/>
      <point x="397" y="298" type="line"/>
    </contour>
    <contour>
      <point x="264" y="706" type="line"/>
      <point x="450" y="39" type="line"/>
      <point x="450" y="32"/>
      <point x="411" y="29"/>
      <point x="380" y="29" type="curve" smooth="yes"/>
      <point x="367" y="29" type="line"/>
      <point x="367" y="0" type="line"/>
      <point x="541" y="0" type="line"/>
      <point x="541" y="29" type="line"/>
      <point x="537" y="29" type="line"/>
      <point x="510" y="29"/>
      <point x="492" y="31"/>
      <point x="485" y="57" type="curve" smooth="yes"/>
      <point x="299" y="710" type="line"/>
      <point x="248" y="710" type="line"/>
      <point x="69" y="72" type="line" smooth="yes"/>
      <point x="58" y="35"/>
      <point x="41" y="29"/>
      <point x="12" y="29" type="curve"/>
      <point x="8" y="29" type="line"/>
      <point x="8" y="0" type="line"/>
      <point x="174" y="0" type="line"/>
      <point x="174" y="29" type="line"/>
      <point x="163" y="29" type="line" smooth="yes"/>
      <point x="132" y="29"/>
      <point x="95" y="36"/>
      <point x="95" y="47" type="curve"/>
      <point x="273" y="696" type="line"/>
    </contour>
  </outline>
</glyph>
<glyph name="bracketleft" format="2">
  <advance width="224"/>
  <unicode hex="005B"/>
  <outline>
    <contour>
      <point x="47" y="-130" type="line"/>
      <point x="204" y="-130" type="line"/>
      <point x="204" y="-101" type="line"/>
      <point x="84" y="-101" type="line"/>
      <point x="84" y="721" type="line"/>
      <point x="204" y="721" type="line"/>
      <point x="204" y="750" type="line"/>
      <point x="47" y="750" type="line"/>
    </contour>
  </outline>
</glyph>
<glyph name="a" format="2">
  <advance width="426"/>
  <unicode hex="0061"/>
  <anchor x="190" y="508" name="top"/>
  <anchor x="342" y="-10" name="right"/>
  <anchor x="218" y="0" name="bottom"/>
  <outline>
    <contour>
      <point x="307" y="304" type="line"/>
      <point x="133" y="278"/>
      <point x="46" y="235"/>
      <point x="46" y="123" type="curve" smooth="yes"/>
      <point x="46" y="43"/>
      <point x="96" y="-10"/>
      <point x="167" y="-10" type="curve" smooth="yes"/>
      <point x="230" y="-10"/>
      <point x="278" y="33"/>
      <point x="307" y="96" type="curve"/>
      <point x="307" y="149" type="line"/>
      <point x="285" y="82"/>
      <point x="237" y="19"/>
      <point x="172" y="19" type="curve" smooth="yes"/>
      <point x="114" y="19"/>
      <point x="86" y="61"/>
      <point x="86" y="123" type="curve" smooth="yes"/>
      <point x="86" y="217"/>
      <point x="153" y="251"/>
      <point x="307" y="275" type="curve"/>
    </contour>
    <contour>
      <point x="302" y="0" type="line"/>
      <point x="406" y="0" type="line"/>
      <point x="406" y="26" type="line"/>
      <point x="405" y="26" type="line"/>
      <point x="367" y="26"/>
      <point x="339" y="33"/>
      <point x="339" y="62" type="curve" smooth="yes"/>
      <point x="339" y="371" type="line" smooth="yes"/>
      <point x="339" y="484"/>
      <point x="274" y="518"/>
      <point x="203" y="518" type="curve" smooth="yes"/>
      <point x="137" y="518"/>
      <point x="92" y="486"/>
      <point x="69" y="461" type="curve"/>
      <point x="69" y="385" type="line"/>
      <point x="111" y="385" type="line"/>
      <point x="111" y="467" type="line"/>
      <point x="93" y="468"/>
      <point x="84" y="440"/>
      <point x="87" y="426" type="curve"/>
      <point x="108" y="462"/>
      <point x="144" y="489"/>
      <point x="203" y="489" type="curve" smooth="yes"/>
      <point x="265" y="489"/>
      <point x="301" y="461"/>
      <point x="301" y="362" type="curve" smooth="yes"/>
      <point x="301" y="110" type="line"/>
      <point x="302" y="110" type="line"/>
    </contour>
  </outline>
</glyph>
<glyph name="b" format="2">
  <advance width="483"/>
  <unicode hex="0062"/>
  <outline>
    <contour>
      <point x="269" y="-10" type="curve" smooth="yes"/>
      <point x="376" y="-10"/>
      <point x="448" y="99"/>
      <point x="448" y="257" type="curve" smooth="yes"/>
      <point x="448" y="414"/>
      <point x="380" y="518"/>
      <point x="275" y="518" type="curve" smooth="yes"/>
      <point x="203" y="518"/>
      <point x="158" y="471"/>
      <point x="116" y="391" type="curve"/>
      <point x="116" y="340" type="line"/>
      <point x="156" y="431"/>
      <point x="204" y="489"/>
      <point x="270" y="489" type="curve" smooth="yes"/>
      <point x="359" y="489"/>
      <point x="408" y="400"/>
      <point x="408" y="257" type="curve" smooth="yes"/>
      <point x="408" y="114"/>
      <point x="358" y="19"/>
      <point x="266" y="19" type="curve" smooth="yes"/>
      <point x="199" y="19"/>
      <point x="149" y="79"/>
      <point x="116" y="177" type="curve"/>
      <point x="116" y="118" type="line"/>
      <point x="154" y="35"/>
      <point x="199" y="-10"/>
    </contour>
    <contour>
      <point x="83" y="664" type="curve" smooth="yes"/>
      <point x="83" y="-3" type="line"/>
      <point x="107" y="-3" type="line"/>
      <point x="119" y="127" type="line"/>
      <point x="120" y="126" type="line"/>
      <point x="120" y="735" type="line"/>
      <point x="15" y="735" type="line"/>
      <point x="15" y="711" type="line"/>
      <point x="23" y="709" type="line" smooth="yes"/>
      <point x="64" y="699"/>
      <point x="83" y="693"/>
    </contour>
  </outline>
</glyph>
<glyph name="g" format="2">
  <advance width="446"/>
  <unicode hex="0067"/>
  <anchor x="210" y="508" name="top"/>
  <outline>
    <contour>
      <point x="428" y="481" type="curve"/>
      <point x="428" y="523" type="line"/>
      <point x="373" y="530"/>
      <point x="332" y="496"/>
      <point x="306" y="436" type="curve"/>
      <point x="317" y="421" type="line"/>
      <point x="343" y="478"/>
      <point x="372" y="487"/>
    </contour>
    <contour>
      <point x="209" y="157" type="curve" smooth="yes"/>
      <point x="294" y="157"/>
      <point x="360" y="227"/>
      <point x="360" y="336" type="curve" smooth="yes"/>
      <point x="360" y="444"/>
      <point x="293" y="518"/>
      <point x="209" y="518" type="curve" smooth="yes"/>
      <point x="125" y="518"/>
      <point x="58" y="444"/>
      <point x="58" y="336" type="curve" smooth="yes"/>
      <point x="58" y="227"/>
      <point x="124" y="157"/>
    </contour>
    <contour>
      <point x="209" y="186" type="curve" smooth="yes"/>
      <point x="143" y="186"/>
      <point x="97" y="240"/>
      <point x="97" y="336" type="curve" smooth="yes"/>
      <point x="97" y="432"/>
      <point x="145" y="489"/>
      <point x="209" y="489" type="curve" smooth="yes"/>
      <point x="274" y="489"/>
      <point x="322" y="432"/>
      <point x="322" y="336" type="curve" smooth="yes"/>
      <point x="322" y="240"/>
      <point x="274" y="186"/>
    </contour>
    <contour>
      <point x="194" y="-236" type="curve" smooth="yes"/>
      <point x="219" y="-236" type="line" smooth="yes"/>
      <point x="326" y="-236"/>
      <point x="419" y="-175"/>
      <point x="419" y="-66" type="curve" smooth="yes"/>
      <point x="419" y="9"/>
      <point x="376" y="40"/>
      <point x="292" y="40" type="curve" smooth="yes"/>
      <point x="148" y="40" type="line" smooth="yes"/>
      <point x="106" y="40"/>
      <point x="83" y="55"/>
      <point x="83" y="94" type="curve" smooth="yes"/>
      <point x="83" y="131"/>
      <point x="111" y="162"/>
      <point x="151" y="185" type="curve"/>
      <point x="137" y="203" type="line"/>
      <point x="79" y="171"/>
      <point x="47" y="135"/>
      <point x="47" y="85" type="curve" smooth="yes"/>
      <point x="47" y="43"/>
      <point x="70" y="16"/>
      <point x="118" y="4" type="curve"/>
      <point x="118" y="4" type="line"/>
      <point x="292" y="4" type="line" smooth="yes"/>
      <point x="360" y="4"/>
      <point x="383" y="-17"/>
      <point x="383" y="-71" type="curve" smooth="yes"/>
      <point x="383" y="-152"/>
      <point x="314" y="-208"/>
      <point x="219" y="-208" type="curve" smooth="yes"/>
      <point x="194" y="-208" type="line" smooth="yes"/>
      <point x="101" y="-208"/>
      <point x="56" y="-171"/>
      <point x="56" y="-107" type="curve" smooth="yes"/>
      <point x="56" y="-59"/>
      <point x="81" y="-23"/>
      <point x="133" y="9" type="curve"/>
      <point x="121" y="28" type="line"/>
      <point x="52" y="-11"/>
      <point x="20" y="-49"/>
      <point x="20" y="-110" type="curve" smooth="yes"/>
      <point x="20" y="-203"/>
      <point x="98" y="-236"/>
    </contour>
  </outline>
</glyph>
<glyph name="r" format="2">
  <advance width="299"/>
  <unicode hex="0072"/>
  <anchor x="163" y="508" name="top"/>
  <anchor x="116" y="0" name="bottom"/>
  <outline>
    <contour>
      <point x="275" y="514" type="line"/>
      <point x="270" y="516"/>
      <point x="257" y="518"/>
      <point x="248" y="518" type="curve" smooth="yes"/>
      <point x="197" y="518"/>
      <point x="156" y="473"/>
      <point x="129" y="405" type="curve"/>
      <point x="129" y="361" type="line"/>
      <point x="159" y="436"/>
      <point x="188" y="476"/>
      <point x="236" y="476" type="curve" smooth="yes"/>
      <point x="247" y="476"/>
      <point x="261" y="474"/>
      <point x="275" y="469" type="curve"/>
    </contour>
    <contour>
      <point x="29" y="0" type="line"/>
      <point x="214" y="0" type="line"/>
      <point x="214" y="26" type="line"/>
      <point x="200" y="26" type="line" smooth="yes"/>
      <point x="177" y="26"/>
      <point x="134" y="31"/>
      <point x="134" y="60" type="curve" smooth="yes"/>
      <point x="134" y="399" type="line"/>
      <point x="133" y="400" type="line"/>
      <point x="133" y="508" type="line"/>
      <point x="29" y="508" type="line"/>
      <point x="29" y="484" type="line"/>
      <point x="37" y="482" type="line" smooth="yes"/>
      <point x="77" y="472"/>
      <point x="96" y="466"/>
      <point x="96" y="437" type="curve" smooth="yes"/>
      <point x="96" y="62" type="line" smooth="yes"/>
      <point x="96" y="33"/>
      <point x="69" y="26"/>
      <point x="30" y="26" type="curve" smooth="yes"/>
      <point x="29" y="26" type="line"/>
    </contour>
  </outline>
</glyph>
<glyph name="s" format="2">
  <advance width="362"/>
  <unicode hex="0073"/>
  <anchor x="182" y="508" name="top"/>
  <anchor x="185" y="0" name="bottom"/>
  <outline>
    <contour>
      <point x="294" y="127" type="curve" smooth="yes"/>
      <point x="294" y="60"/>
      <point x="252" y="19"/>
      <point x="185" y="19" type="curve" smooth="yes"/>
      <point x="134" y="19"/>
      <point x="93" y="32"/>
      <point x="58" y="68" type="curve"/>
      <point x="58" y="58"/>
      <point x="61" y="42"/>
      <point x="75" y="27" type="curve"/>
      <point x="75" y="125" type="line"/>
      <point x="31" y="125" type="line"/>
      <point x="31" y="44" type="line"/>
      <point x="67" y="12"/>
      <point x="118" y="-10"/>
      <point x="185" y="-10" type="curve" smooth="yes"/>
      <point x="276" y="-10"/>
      <point x="331" y="53"/>
      <point x="331" y="132" type="curve" smooth="yes"/>
      <point x="331" y="225"/>
      <point x="265" y="252"/>
      <point x="201" y="277" type="curve" smooth="yes"/>
      <point x="143" y="301"/>
      <point x="86" y="314"/>
      <point x="86" y="390" type="curve" smooth="yes"/>
      <point x="86" y="447"/>
      <point x="120" y="489"/>
      <point x="185" y="489" type="curve" smooth="yes"/>
      <point x="226" y="489"/>
      <point x="260" y="472"/>
      <point x="280" y="446" type="curve"/>
      <point x="281" y="454"/>
      <point x="275" y="464"/>
      <point x="265" y="473" type="curve"/>
      <point x="265" y="398" type="line"/>
      <point x="308" y="398" type="line"/>
      <point x="308" y="473" type="line"/>
      <point x="286" y="494"/>
      <point x="247" y="518"/>
      <point x="185" y="518" type="curve" smooth="yes"/>
      <point x="101" y="518"/>
      <point x="49" y="465"/>
      <point x="49" y="387" type="curve" smooth="yes"/>
      <point x="49" y="296"/>
      <point x="114" y="271"/>
      <point x="177" y="248" type="curve" smooth="yes"/>
      <point x="237" y="226"/>
      <point x="294" y="206"/>
    </contour>
  </outline>
</glyph>
<glyph name="x" format="2">
  <advance width="441"/>
  <unicode hex="0078"/>
  <outline>
    <contour>
      <point x="427" y="0" type="line"/>
      <point x="427" y="29" type="line"/>
      <point x="426" y="29" type="line"/>
      <point x="393" y="29"/>
      <point x="379" y="37"/>
      <point x="363" y="63" type="curve" smooth="yes"/>
      <point x="233" y="276" type="line"/>
      <point x="229" y="280" type="line"/>
      <point x="117" y="471" type="line"/>
      <point x="117" y="477"/>
      <point x="154" y="479"/>
      <point x="187" y="479" type="curve" smooth="yes"/>
      <point x="188" y="479" type="line"/>
      <point x="188" y="508" type="line"/>
      <point x="24" y="508" type="line"/>
      <point x="24" y="478" type="line"/>
      <point x="25" y="478" type="line"/>
      <point x="56" y="478"/>
      <point x="70" y="473"/>
      <point x="83" y="452" type="curve" smooth="yes"/>
      <point x="202" y="256" type="line"/>
      <point x="206" y="253" type="line"/>
      <point x="334" y="38" type="line"/>
      <point x="334" y="31"/>
      <point x="295" y="29"/>
      <point x="261" y="29" type="curve" smooth="yes"/>
      <point x="259" y="29" type="line"/>
      <point x="259" y="0" type="line"/>
    </contour>
    <contour>
      <point x="15" y="0" type="line"/>
      <point x="173" y="0" type="line"/>
      <point x="173" y="29" type="line"/>
      <point x="171" y="29" type="line" smooth="yes"/>
      <point x="140" y="29"/>
      <point x="105" y="37"/>
      <point x="105" y="49" type="curve"/>
      <point x="224" y="247" type="line"/>
      <point x="203" y="267" type="line"/>
      <point x="80" y="67" type="line" smooth="yes"/>
      <point x="62" y="39"/>
      <point x="39" y="29"/>
      <point x="16" y="29" type="curve"/>
      <point x="15" y="29" type="line"/>
    </contour>
    <contour>
      <point x="235" y="246" type="line"/>
      <point x="349" y="434" type="line" smooth="yes"/>
      <point x="371" y="469"/>
      <point x="391" y="479"/>
      <point x="418" y="479" type="curve"/>
      <point x="419" y="479" type="line"/>
      <point x="419" y="508" type="line"/>
      <point x="262" y="508" type="line"/>
      <point x="262" y="479" type="line"/>
      <point x="264" y="479" type="line" smooth="yes"/>
      <point x="294" y="479"/>
      <point x="330" y="471"/>
      <point x="330" y="459" type="curve"/>
      <point x="218" y="271" type="line"/>
    </contour>
  </outline>
</glyph>
<glyph name="section" format="2">
  <advance width="497"/>
  <unicode hex="00A7"/>
  <outline>
    <contour>
      <point x="227" y="424" type="line"/>
      <point x="133" y="427"/>
      <point x="46" y="378"/>
      <point x="46" y="282" type="curve" smooth="yes"/>
      <point x="46" y="181"/>
      <point x="127" y="141"/>
      <point x="205" y="100" type="curve" smooth="yes"/>
      <point x="291" y="53"/>
      <point x="367" y="28"/>
      <point x="367" y="-76" type="curve" smooth="yes"/>
      <point x="367" y="-163"/>
      <point x="314" y="-207"/>
      <point x="239" y="-207" type="curve" smooth="yes"/>
      <point x="167" y="-207"/>
      <point x="116" y="-176"/>
      <point x="83" y="-133" type="curve"/>
      <point x="84" y="-142"/>
      <point x="89" y="-162"/>
      <point x="114" y="-196" type="curve"/>
      <point x="114" y="-67" type="line"/>
      <point x="71" y="-67" type="line"/>
      <point x="71" y="-172" type="line"/>
      <point x="98" y="-201"/>
      <point x="160" y="-236"/>
      <point x="240" y="-236" type="curve" smooth="yes"/>
      <point x="330" y="-236"/>
      <point x="404" y="-177"/>
      <point x="404" y="-73" type="curve" smooth="yes"/>
      <point x="404" y="36"/>
      <point x="324" y="78"/>
      <point x="233" y="126" type="curve" smooth="yes"/>
      <point x="155" y="166"/>
      <point x="81" y="197"/>
      <point x="81" y="284" type="curve" smooth="yes"/>
      <point x="81" y="360"/>
      <point x="144" y="402"/>
      <point x="238" y="400" type="curve"/>
    </contour>
    <contour>
      <point x="307" y="63" type="line"/>
      <point x="391" y="75"/>
      <point x="451" y="129"/>
      <point x="451" y="214" type="curve" smooth="yes"/>
      <point x="451" y="314"/>
      <point x="368" y="359"/>
      <point x="275" y="408" type="curve" smooth="yes"/>
      <point x="202" y="446"/>
      <point x="129" y="479"/>
      <point x="129" y="571" type="curve" smooth="yes"/>
      <point x="129" y="645"/>
      <point x="173" y="691"/>
      <point x="251" y="691" type="curve" smooth="yes"/>
      <point x="320" y="691"/>
      <point x="356" y="655"/>
      <point x="380" y="616" type="curve"/>
      <point x="383" y="637"/>
      <point x="370" y="666"/>
      <point x="351" y="671" type="curve"/>
      <point x="351" y="569" type="line"/>
      <point x="395" y="569" type="line"/>
      <point x="395" y="657" type="line"/>
      <point x="373" y="686"/>
      <point x="323" y="720"/>
      <point x="251" y="720" type="curve" smooth="yes"/>
      <point x="161" y="720"/>
      <point x="92" y="665"/>
      <point x="92" y="574" type="curve" smooth="yes"/>
      <point x="92" y="469"/>
      <point x="170" y="423"/>
      <point x="254" y="381" type="curve" smooth="yes"/>
      <point x="338" y="338"/>
      <point x="416" y="295"/>
      <point x="416" y="212" type="curve" smooth="yes"/>
      <point x="416" y="146"/>
      <point x="377" y="101"/>
      <point x="297" y="87" type="curve"/>
    </contour>
  </outline>
</glyph>
<glyph name="copyright" format="2">
  <advance width="678"/>
  <unicode hex="00A9"/>
  <outline>
    <contour>
      <point x="341" y="534" type="curve" smooth="yes"/>
      <point x="394" y="534"/>
      <point x="428" y="498"/>
      <point x="442" y="437" type="curve"/>
      <point x="475" y="437" type="line"/>
      <point x="475" y="552" type="line"/>
      <point x="453" y="552" type="line"/>
      <point x="445" y="446" type="line"/>
      <point x="459" y="451" type="line"/>
      <point x="446" y="522"/>
      <point x="396" y="563"/>
      <point x="341" y="563" type="curve" smooth="yes"/>
      <point x="252" y="563"/>
      <point x="186" y="476"/>
      <point x="186" y="354" type="curve" smooth="yes"/>
      <point x="186" y="231"/>
      <point x="255" y="147"/>
      <point x="348" y="147" type="curve" smooth="yes"/>
      <point x="418" y="147"/>
      <point x="471" y="201"/>
      <point x="484" y="270" type="curve"/>
      <point x="462" y="282" type="line"/>
      <point x="448" y="218"/>
      <point x="409" y="176"/>
      <point x="352" y="176" type="curve" smooth="yes"/>
      <point x="273" y="176"/>
      <point x="224" y="245"/>
      <point x="224" y="354" type="curve" smooth="yes"/>
      <point x="224" y="464"/>
      <point x="273" y="534"/>
    </contour>
    <contour>
      <point x="64" y="355" type="curve" smooth="yes"/>
      <point x="64" y="556"/>
      <point x="179" y="709"/>
      <point x="339" y="709" type="curve" smooth="yes"/>
      <point x="499" y="709"/>
      <point x="614" y="556"/>
      <point x="614" y="355" type="curve" smooth="yes"/>
      <point x="614" y="154"/>
      <point x="499" y="1"/>
      <point x="339" y="1" type="curve" smooth="yes"/>
      <point x="179" y="1"/>
      <point x="64" y="154"/>
    </contour>
    <contour>
      <point x="32" y="355" type="curve" smooth="yes"/>
      <point x="32" y="138"/>
      <point x="166" y="-28"/>
      <point x="339" y="-28" type="curve" smooth="yes"/>
      <point x="512" y="-28"/>
      <point x="645" y="138"/>
      <point x="645" y="355" type="curve" smooth="yes"/>
      <point x="645" y="572"/>
      <point x="512" y="738"/>
      <point x="339" y="738" type="curve" smooth="yes"/>
      <point x="166" y="738"/>
      <point x="32" y="572"/>
    </contour>
  </outline>
</glyph>
<glyph name="germandbls" format="2">
  <advance width="460"/>
  <unicode hex="00DF"/>
  <outline>
    <contour>
      <point x="29" y="508" type="line"/>
      <point x="29" y="479" type="line"/>
      <point x="141" y="479" type="line"/>
      <point x="141" y="508" type="line"/>
    </contour>
    <contour>
      <point x="221" y="420" type="line"/>
      <point x="301" y="430"/>
      <point x="377" y="508"/>
      <point x="377" y="609" type="curve" smooth="yes"/>
      <point x="377" y="692"/>
      <point x="327" y="752"/>
      <point x="249" y="752" type="curve" smooth="yes"/>
      <point x="176" y="752"/>
      <point x="112" y="704"/>
      <point x="112" y="589" type="curve" smooth="yes"/>
      <point x="112" y="62" type="line" smooth="yes"/>
      <point x="112" y="33"/>
      <point x="86" y="26"/>
      <point x="42" y="26" type="curve" smooth="yes"/>
      <point x="33" y="26" type="line"/>
      <point x="33" y="0" type="line"/>
      <point x="150" y="0" type="line"/>
      <point x="150" y="589" type="line" smooth="yes"/>
      <point x="150" y="689"/>
      <point x="190" y="723"/>
      <point x="249" y="723" type="curve" smooth="yes"/>
      <point x="308" y="723"/>
      <point x="341" y="677"/>
      <point x="341" y="607" type="curve" smooth="yes"/>
      <point x="341" y="504"/>
      <point x="275" y="446"/>
      <point x="203" y="435" type="curve"/>
      <point x="203" y="406" type="line"/>
      <point x="205" y="406" type="line" smooth="yes"/>
      <point x="309" y="406"/>
      <point x="387" y="322"/>
      <point x="387" y="189" type="curve" smooth="yes"/>
      <point x="387" y="77"/>
      <point x="348" y="19"/>
      <point x="279" y="19" type="curve" smooth="yes"/>
      <point x="237" y="19"/>
      <point x="202" y="43"/>
      <point x="200" y="42" type="curve"/>
      <point x="200" y="10" type="line"/>
      <point x="213" y="1"/>
      <point x="245" y="-10"/>
      <point x="279" y="-10" type="curve" smooth="yes"/>
      <point x="367" y="-10"/>
      <point x="427" y="63"/>
      <point x="427" y="189" type="curve" smooth="yes"/>
      <point x="427" y="328"/>
      <point x="347" y="414"/>
      <point x="235" y="427" type="curve"/>
      <point x="243" y="418" type="line"/>
      <point x="243" y="434" type="line"/>
    </contour>
  </outline>
</glyph>
<glyph name="ae" format="2">
  <advance width="679"/>
  <unicode hex="00E6"/>
  <anchor x="344" y="508" name="top"/>
  <outline>
    <contour>
      <point x="326" y="290" type="line"/>
      <point x="139" y="266"/>
      <point x="45" y="226"/>
      <point x="45" y="117" type="curve" smooth="yes"/>
      <point x="45" y="39"/>
      <point x="97" y="-10"/>
      <point x="171" y="-10" type="curve" smooth="yes"/>
      <point x="249" y="-10"/>
      <point x="307" y="52"/>
      <point x="338" y="138" type="curve"/>
      <point x="321" y="172" type="line"/>
      <point x="294" y="81"/>
      <point x="243" y="19"/>
      <point x="175" y="19" type="curve" smooth="yes"/>
      <point x="116" y="19"/>
      <point x="84" y="57"/>
      <point x="84" y="117" type="curve" smooth="yes"/>
      <point x="84" y="207"/>
      <point x="158" y="239"/>
      <point x="325" y="261" type="curve"/>
    </contour>
    <contour>
      <point x="203" y="518" type="curve" smooth="yes"/>
      <point x="137" y="518"/>
      <point x="92" y="486"/>
      <point x="69" y="461" type="curve"/>
      <point x="69" y="385" type="line"/>
      <point x="111" y="385" type="line"/>
      <point x="111" y="467" type="line"/>
      <point x="92" y="468"/>
      <point x="84" y="440"/>
      <point x="87" y="426" type="curve"/>
      <point x="108" y="462"/>
      <point x="143" y="489"/>
      <point x="202" y="489" type="curve" smooth="yes"/>
      <point x="268" y="489"/>
      <point x="303" y="455"/>
      <point x="303" y="350" type="curve"/>
      <point x="303" y="265" type="line"/>
      <point x="335" y="361" type="line"/>
      <point x="335" y="483"/>
      <point x="277" y="518"/>
    </contour>
    <contour>
      <point x="490" y="-10" type="curve" smooth="yes"/>
      <point x="569" y="-10"/>
      <point x="615" y="43"/>
      <point x="642" y="107" type="curve"/>
      <point x="618" y="122" type="line"/>
      <point x="601" y="83"/>
      <point x="563" y="19"/>
      <point x="490" y="19" type="curve" smooth="yes"/>
      <point x="406" y="19"/>
      <point x="341" y="103"/>
      <point x="341" y="250" type="curve" smooth="yes"/>
      <point x="341" y="398"/>
      <point x="402" y="489"/>
      <point x="481" y="489" type="curve" smooth="yes"/>
      <point x="563" y="489"/>
      <point x="601" y="415"/>
      <point x="605" y="265" type="curve"/>
      <point x="619" y="288" type="line"/>
      <point x="318" y="288" type="line"/>
      <point x="319" y="259" type="line"/>
      <point x="644" y="259" type="line"/>
      <point x="643" y="425"/>
      <point x="588" y="518"/>
      <point x="482" y="518" type="curve" smooth="yes"/>
      <point x="399" y="518"/>
      <point x="347" y="452"/>
      <point x="320" y="341" type="curve"/>
      <point x="310" y="338"/>
      <point x="303" y="296"/>
      <point x="303" y="252" type="curve" smooth="yes"/>
      <point x="303" y="92"/>
      <point x="385" y="-10"/>
    </contour>
  </outline>
</glyph>
<glyph name="dcroat" format="2">
  <advance width="484"/>
  <unicode hex="0111"/>
  <outline>
    <contour>
      <point x="480" y="632" type="line"/>
      <point x="198" y="632" type="line"/>
      <point x="198" y="603" type="line"/>
      <point x="480" y="603" type="line"/>
    </contour>
    <contour>
      <point x="217" y="518" type="curve" smooth="yes"/>
      <point x="110" y="518"/>
      <point x="36" y="408"/>
      <point x="36" y="250" type="curve" smooth="yes"/>
      <point x="36" y="93"/>
      <point x="103" y="-10"/>
      <point x="207" y="-10" type="curve" smooth="yes"/>
      <point x="294" y="-10"/>
      <point x="342" y="61"/>
      <point x="394" y="170" type="curve"/>
      <point x="378" y="197" type="line"/>
      <point x="335" y="93"/>
      <point x="283" y="19"/>
      <point x="212" y="19" type="curve" smooth="yes"/>
      <point x="122" y="19"/>
      <point x="76" y="107"/>
      <point x="76" y="250" type="curve" smooth="yes"/>
      <point x="76" y="393"/>
      <point x="127" y="489"/>
      <point x="220" y="489" type="curve" smooth="yes"/>
      <point x="288" y="489"/>
      <point x="336" y="423"/>
      <point x="370" y="326" type="curve"/>
      <point x="388" y="347" type="line"/>
      <point x="345" y="456"/>
      <point x="299" y="518"/>
    </contour>
    <contour>
      <point x="363" y="735" type="line"/>
      <point x="363" y="139" type="line"/>
      <point x="364" y="134" type="line"/>
      <point x="364" y="0" type="line"/>
      <point x="468" y="0" type="line"/>
      <point x="468" y="26" type="line"/>
      <point x="467" y="26" type="line"/>
      <point x="429" y="26"/>
      <point x="400" y="33"/>
      <point x="400" y="62" type="curve" smooth="yes"/>
      <point x="400" y="735" type="line"/>
    </contour>
  </outline>
</glyph>
<glyph name="hbar" format="2">
  <advance width="489"/>
  <unicode hex="0127"/>
  <outline>
    <contour>
      <point x="467" y="0" type="line"/>
      <point x="467" y="26" type="line"/>
      <point x="465" y="26" type="line" smooth="yes"/>
      <point x="426" y="26"/>
      <point x="399" y="33"/>
      <point x="399" y="62" type="curve" smooth="yes"/>
      <point x="399" y="357" type="line" smooth="yes"/>
      <point x="399" y="468"/>
      <point x="354" y="518"/>
      <point x="278" y="518" type="curve" smooth="yes"/>
      <point x="206" y="518"/>
      <point x="156" y="468"/>
      <point x="104" y="367" type="curve"/>
      <point x="114" y="336" type="line"/>
      <point x="158" y="429"/>
      <point x="207" y="487"/>
      <point x="272" y="487" type="curve" smooth="yes"/>
      <point x="338" y="487"/>
      <point x="362" y="443"/>
      <point x="362" y="346" type="curve" smooth="yes"/>
      <point x="362" y="36" type="line" smooth="yes"/>
      <point x="362" y="29"/>
      <point x="325" y="26"/>
      <point x="303" y="26" type="curve" smooth="yes"/>
      <point x="301" y="26" type="line"/>
      <point x="301" y="0" type="line"/>
    </contour>
    <contour>
      <point x="308" y="632" type="line"/>
      <point x="17" y="632" type="line"/>
      <point x="17" y="603" type="line"/>
      <point x="308" y="603" type="line"/>
    </contour>
    <contour>
      <point x="96" y="735" type="line"/>
      <point x="96" y="62" type="line" smooth="yes"/>
      <point x="96" y="33"/>
      <point x="69" y="26"/>
      <point x="30" y="26" type="curve" smooth="yes"/>
      <point x="29" y="26" type="line"/>
      <point x="29" y="0" type="line"/>
      <point x="195" y="0" type="line"/>
      <point x="195" y="26" type="line"/>
      <point x="192" y="26" type="line" smooth="yes"/>
      <point x="169" y="26"/>
      <point x="134" y="29"/>
      <point x="134" y="36" type="curve"/>
      <point x="134" y="735" type="line"/>
    </contour>
  </outline>
</glyph>
<glyph name="itilde" format="2">
  <advance width="229"/>
  <unicode hex="0129"/>
  <outline>
    <contour>
      <point x="153" y="618" type="curve" smooth="yes"/>
      <point x="193" y="618"/>
      <point x="212" y="653"/>
      <point x="226" y="715" type="curve"/>
      <point x="201" y="723" type="line"/>
      <point x="191" y="677"/>
      <point x="180" y="650"/>
      <point x="159" y="650" type="curve" smooth="yes"/>
      <point x="124" y="650"/>
      <point x="103" y="727"/>
      <point x="46" y="727" type="curve" smooth="yes"/>
      <point x="6" y="727"/>
      <point x="-14" y="693"/>
      <point x="-24" y="628" type="curve"/>
      <point x="1" y="618" type="line"/>
      <point x="8" y="667"/>
      <point x="18" y="694"/>
      <point x="41" y="694" type="curve" smooth="yes"/>
      <point x="74" y="694"/>
      <point x="92" y="618"/>
    </contour>
    <component base="dotlessi"/>
  </outline>
</glyph>
<glyph name="Eng" format="2">
  <advance width="616"/>
  <unicode hex="014A"/>
  <outline>
    <contour>
      <point x="366" y="-212" type="curve" smooth="yes"/>
      <point x="325" y="-212"/>
      <point x="296" y="-201"/>
      <point x="278" y="-188" type="curve"/>
      <point x="278" y="-158" type="line"/>
      <point x="298" y="-170"/>
      <point x="327" y="-184"/>
      <point x="366" y="-184" type="curve" smooth="yes"/>
      <point x="428" y="-184"/>
      <point x="471" y="-146"/>
      <point x="471" y="-24" type="curve" smooth="yes"/>
      <point x="471" y="15" type="line"/>
      <point x="485" y="-28" type="line"/>
      <point x="133" y="704" type="line"/>
      <point x="145" y="708" type="line"/>
      <point x="145" y="44" type="line" smooth="yes"/>
      <point x="145" y="37"/>
      <point x="185" y="29"/>
      <point x="220" y="29" type="curve" smooth="yes"/>
      <point x="230" y="29" type="line"/>
      <point x="230" y="0" type="line"/>
      <point x="37" y="0" type="line"/>
      <point x="37" y="29" type="line"/>
      <point x="45" y="29" type="line" smooth="yes"/>
      <point x="85" y="29"/>
      <point x="114" y="41"/>
      <point x="114" y="70" type="curve" smooth="yes"/>
      <point x="114" y="645" type="line" smooth="yes"/>
      <point x="114" y="674"/>
      <point x="85" y="681"/>
      <point x="45" y="681" type="curve" smooth="yes"/>
      <point x="37" y="681" type="line"/>
      <point x="37" y="710" type="line"/>
      <point x="168" y="710" type="line"/>
      <point x="482" y="43" type="line"/>
      <point x="471" y="24" type="line"/>
      <point x="471" y="666" type="line" smooth="yes"/>
      <point x="471" y="673"/>
      <point x="432" y="681"/>
      <point x="397" y="681" type="curve" smooth="yes"/>
      <point x="386" y="681" type="line"/>
      <point x="386" y="710" type="line"/>
      <point x="580" y="710" type="line"/>
      <point x="580" y="681" type="line"/>
      <point x="571" y="681" type="line" smooth="yes"/>
      <point x="531" y="681"/>
      <point x="502" y="669"/>
      <point x="502" y="640" type="curve" smooth="yes"/>
      <point x="502" y="-24" type="line" smooth="yes"/>
      <point x="502" y="-159"/>
      <point x="440" y="-212"/>
    </contour>
  </outline>
</glyph>
<glyph name="Uogonek" format="2">
  <advance width="634"/>
  <unicode hex="0172"/>
  <outline>
    <contour>
      <point x="370" y="-233" type="curve" smooth="yes"/>
      <point x="406" y="-233"/>
      <point x="432" y="-211"/>
      <point x="453" y="-180" type="curve"/>
      <point x="437" y="-160" type="line"/>
      <point x="420" y="-184"/>
      <point x="403" y="-204"/>
      <point x="376" y="-204" type="curve" smooth="yes"/>
      <point x="351" y="-204"/>
      <point x="329" y="-182"/>
      <point x="329" y="-140" type="curve" smooth="yes"/>
      <point x="329" y="-73"/>
      <point x="375" y="-48"/>
      <point x="452" y="40" type="curve" smooth="yes"/>
      <point x="494" y="84"/>
      <point x="521" y="158"/>
      <point x="521" y="271" type="curve" smooth="yes"/>
      <point x="521" y="635" type="line" smooth="yes"/>
      <point x="521" y="669"/>
      <point x="550" y="681"/>
      <point x="590" y="681" type="curve" smooth="yes"/>
      <point x="599" y="681" type="line"/>
      <point x="599" y="710" type="line"/>
      <point x="414" y="710" type="line"/>
      <point x="414" y="681" type="line"/>
      <point x="421" y="681" type="line" smooth="yes"/>
      <point x="452" y="681"/>
      <point x="491" y="673"/>
      <point x="491" y="659" type="curve" smooth="yes"/>
      <point x="491" y="271" type="line" smooth="yes"/>
      <point x="491" y="88"/>
      <point x="418" y="22"/>
      <point x="322" y="22" type="curve" smooth="yes"/>
      <point x="226" y="22"/>
      <point x="152" y="85"/>
      <point x="152" y="271" type="curve" smooth="yes"/>
      <point x="152" y="671" type="line" smooth="yes"/>
      <point x="152" y="678"/>
      <point x="191" y="681"/>
      <point x="222" y="681" type="curve" smooth="yes"/>
      <point x="229" y="681" type="line"/>
      <point x="229" y="710" type="line"/>
      <point x="36" y="710" type="line"/>
      <point x="36" y="681" type="line"/>
      <point x="45" y="681" type="line" smooth="yes"/>
      <point x="85" y="681"/>
      <point x="114" y="674"/>
      <point x="114" y="645" type="curve" smooth="yes"/>
      <point x="114" y="271" type="line" smooth="yes"/>
      <point x="114" y="68"/>
      <point x="200" y="-10"/>
      <point x="318" y="-10" type="curve" smooth="yes"/>
      <point x="348" y="-10"/>
      <point x="377" y="-5"/>
      <point x="403" y="7" type="curve"/>
      <point x="408" y="19" type="line"/>
      <point x="347" y="-23"/>
      <point x="292" y="-71"/>
      <point x="292" y="-140" type="curve" smooth="yes"/>
      <point x="292" y="-198"/>
      <point x="327" y="-233"/>
    </contour>
  </outline>
</glyph>
<glyph name="oogonek" format="2">
  <advance width="457"/>
  <unicode hex="01EB"/>
  <outline>
    <contour>
      <point x="229" y="17" type="curve"/>
      <point x="135" y="17"/>
      <point x="76" y="109"/>
      <point x="76" y="253" type="curve" smooth="yes"/>
      <point x="76" y="394"/>
      <point x="135" y="489"/>
      <point x="229" y="489" type="curve" smooth="yes"/>
      <point x="323" y="489"/>
      <point x="382" y="394"/>
      <point x="382" y="253" type="curve" smooth="yes"/>
      <point x="382" y="108"/>
      <point x="323" y="17"/>
    </contour>
    <contour>
      <point x="263" y="-233" type="curve" smooth="yes"/>
      <point x="299" y="-233"/>
      <point x="325" y="-211"/>
      <point x="347" y="-180" type="curve"/>
      <point x="330" y="-160" type="line"/>
      <point x="313" y="-184"/>
      <point x="296" y="-204"/>
      <point x="270" y="-204" type="curve" smooth="yes"/>
      <point x="245" y="-204"/>
      <point x="223" y="-182"/>
      <point x="223" y="-140" type="curve" smooth="yes"/>
      <point x="223" y="-69"/>
      <point x="280" y="-38"/>
      <point x="352" y="40" type="curve" smooth="yes"/>
      <point x="396" y="87"/>
      <point x="422" y="161"/>
      <point x="422" y="253" type="curve" smooth="yes"/>
      <point x="422" y="409"/>
      <point x="341" y="518"/>
      <point x="229" y="518" type="curve" smooth="yes"/>
      <point x="117" y="518"/>
      <point x="36" y="410"/>
      <point x="36" y="253" type="curve" smooth="yes"/>
      <point x="36" y="95"/>
      <point x="117" y="-12"/>
      <point x="229" y="-12" type="curve"/>
      <point x="256" y="-12"/>
      <point x="282" y="-6"/>
      <point x="305" y="5" type="curve"/>
      <point x="302" y="16" type="line"/>
      <point x="245" y="-24"/>
      <point x="185" y="-69"/>
      <point x="185" y="-140" type="curve" smooth="yes"/>
      <point x="185" y="-198"/>
      <point x="220" y="-233"/>
    </contour>
  </outline>
</glyph>
<glyph name="tilde" format="2">
  <advance width="403"/>
  <unicode hex="02DC"/>
  <anchor x="202" y="516" name="_top"/>
  <outline>
    <contour>
      <point x="254" y="618" type="curve" smooth="yes"/>
      <point x="294" y="618"/>
      <point x="313" y="653"/>
      <point x="327" y="715" type="curve"/>
      <point x="302" y="723" type="line"/>
      <point x="291" y="677"/>
      <point x="281" y="650"/>
      <point x="259" y="650" type="curve" smooth="yes"/>
      <point x="225" y="650"/>
      <point x="204" y="727"/>
      <point x="147" y="727" type="curve" smooth="yes"/>
      <point x="107" y="727"/>
      <point x="87" y="693"/>
      <point x="77" y="628" type="curve"/>
      <point x="102" y="618" type="line"/>
      <point x="109" y="667"/>
      <point x="119" y="694"/>
      <point x="142" y="694" type="curve" smooth="yes"/>
      <point x="175" y="694"/>
      <point x="193" y="618"/>
    </contour>
  </outline>
</glyph>
<glyph name="bullet" format="2">
  <advance width="296"/>
  <unicode hex="2022"/>
  <outline>
    <contour>
      <point x="60" y="337" type="curve" smooth="yes"/>
      <point x="60" y="278"/>
      <point x="96" y="237"/>
      <point x="148" y="237" type="curve" smooth="yes"/>
      <point x="199" y="237"/>
      <point x="236" y="278"/>
      <point x="236" y="337" type="curve" smooth="yes"/>
      <point x="236" y="396"/>
      <point x="199" y="437"/>
      <point x="148" y="437" type="curve" smooth="yes"/>
      <point x="96" y="437"/>
      <point x="60" y="396"/>
    </contour>
  </outline>
</glyph>
<glyph name="lira" format="2">
  <advance width="452"/>
  <unicode hex="20A4"/>
  <outline>
    <contour>
      <point x="35" y="427" type="line"/>
      <point x="35" y="399" type="line"/>
      <point x="322" y="399" type="line"/>
      <point x="322" y="427" type="line"/>
    </contour>
    <contour>
      <point x="35" y="272" type="line"/>
      <point x="35" y="244" type="line"/>
      <point x="322" y="244" type="line"/>
      <point x="322" y="272" type="line"/>
    </contour>
    <contour>
      <point x="29" y="-11" type="line"/>
      <point x="139" y="18"/>
      <point x="186" y="106"/>
      <point x="186" y="217" type="curve" smooth="yes"/>
      <point x="186" y="336"/>
      <point x="122" y="409"/>
      <point x="122" y="533" type="curve" smooth="yes"/>
      <point x="122" y="628"/>
      <point x="173" y="690"/>
      <point x="252" y="690" type="curve" smooth="yes"/>
      <point x="318" y="690"/>
      <point x="352" y="653"/>
      <point x="371" y="628" type="curve"/>
      <point x="374" y="624"/>
      <point x="370" y="663"/>
      <point x="354" y="664" type="curve"/>
      <point x="354" y="563" type="line"/>
      <point x="397" y="563" type="line"/>
      <point x="397" y="655" type="line"/>
      <point x="379" y="672"/>
      <point x="332" y="718"/>
      <point x="252" y="718" type="curve" smooth="yes"/>
      <point x="147" y="718"/>
      <point x="82" y="639"/>
      <point x="82" y="528" type="curve" smooth="yes"/>
      <point x="82" y="405"/>
      <point x="152" y="322"/>
      <point x="152" y="202" type="curve" smooth="yes"/>
      <point x="152" y="119"/>
      <point x="122" y="47"/>
      <point x="29" y="17" type="curve"/>
    </contour>
    <contour>
      <point x="306" y="-10" type="curve" smooth="yes"/>
      <point x="380" y="-10"/>
      <point x="420" y="68"/>
      <point x="436" y="149" type="curve"/>
      <point x="409" y="162" type="line"/>
      <point x="393" y="91"/>
      <point x="367" y="32"/>
      <point x="308" y="32" type="curve" smooth="yes"/>
      <point x="263" y="32"/>
      <point x="219" y="70"/>
      <point x="160" y="129" type="curve"/>
      <point x="150" y="124"/>
      <point x="146" y="115"/>
      <point x="146" y="103" type="curve"/>
      <point x="211" y="42"/>
      <point x="246" y="-10"/>
    </contour>
  </outline>
</glyph>
<glyph name="naira" format="2">
  <advance width="452"/>
  <unicode hex="20A6"/>
  <outline>
    <contour>
      <point x="10" y="0" type="line"/>
      <point x="169" y="0" type="line"/>
      <point x="169" y="29" type="line"/>
      <point x="157" y="29" type="line" smooth="yes"/>
      <point x="133" y="29"/>
      <point x="97" y="37"/>
      <point x="97" y="44" type="curve" smooth="yes"/>
      <point x="97" y="707" type="line"/>
      <point x="86" y="702" type="line"/>
      <point x="343" y="0" type="line"/>
      <point x="384" y="0" type="line"/>
      <point x="384" y="640" type="line" smooth="yes"/>
      <point x="384" y="669"/>
      <point x="404" y="681"/>
      <point x="433" y="681" type="curve" smooth="yes"/>
      <point x="442" y="681" type="line"/>
      <point x="442" y="710" type="line"/>
      <point x="283" y="710" type="line"/>
      <point x="283" y="681" type="line"/>
      <point x="294" y="681" type="line"/>
      <point x="319" y="681"/>
      <point x="356" y="673"/>
      <point x="356" y="666" type="curve" smooth="yes"/>
      <point x="356" y="27" type="line"/>
      <point x="361" y="44" type="line"/>
      <point x="119" y="710" type="line"/>
      <point x="10" y="710" type="line"/>
      <point x="10" y="681" type="line"/>
      <point x="18" y="681" type="line" smooth="yes"/>
      <point x="46" y="681"/>
      <point x="66" y="674"/>
      <point x="66" y="645" type="curve" smooth="yes"/>
      <point x="66" y="70" type="line" smooth="yes"/>
      <point x="66" y="41"/>
      <point x="46" y="29"/>
      <point x="18" y="29" type="curve" smooth="yes"/>
      <point x="10" y="29" type="line"/>
    </contour>
    <contour>
      <point x="87" y="439" type="line"/>
      <point x="5" y="439" type="line"/>
      <point x="5" y="410" type="line"/>
      <point x="82" y="410" type="line"/>
    </contour>
    <contour>
      <point x="446" y="410" type="line"/>
      <point x="446" y="439" type="line"/>
      <point x="202" y="439" type="line"/>
      <point x="208" y="410" type="line"/>
      <point x="363" y="410" type="line"/>
      <point x="370" y="410" type="line"/>
    </contour>
    <contour>
      <point x="5" y="251" type="line"/>
      <point x="271" y="251" type="line"/>
      <point x="260" y="280" type="line"/>
      <point x="90" y="280" type="line"/>
      <point x="81" y="280" type="line"/>
      <point x="5" y="280" type="line"/>
    </contour>
    <contour>
      <point x="375" y="251" type="line"/>
      <point x="446" y="251" type="line"/>
      <point x="446" y="280" type="line"/>
      <point x="375" y="280" type="line"/>
    </contour>
  </outline>
</glyph>
<glyph name="cedi" format="2">
  <advance width="452"/>
  <unicode hex="20B5"/>
  <outline>
    <contour>
      <point x="264" y="700" type="curve" smooth="yes"/>
      <point x="124" y="700"/>
      <point x="30" y="575"/>
      <point x="30" y="355" type="curve" smooth="yes"/>
      <point x="30" y="151"/>
      <point x="119" y="10"/>
      <point x="250" y="10" type="curve" smooth="yes"/>
      <point x="353" y="10"/>
      <point x="409" y="95"/>
      <point x="433" y="219" type="curve"/>
      <point x="405" y="234" type="line"/>
      <point x="386" y="125"/>
      <point x="342" y="38"/>
      <point x="250" y="38" type="curve" smooth="yes"/>
      <point x="139" y="38"/>
      <point x="71" y="165"/>
      <point x="71" y="355" type="curve" smooth="yes"/>
      <point x="71" y="564"/>
      <point x="146" y="671"/>
      <point x="264" y="671" type="curve" smooth="yes"/>
      <point x="333" y="671"/>
      <point x="376" y="641"/>
      <point x="396" y="604" type="curve"/>
      <point x="407" y="588"/>
      <point x="405" y="634"/>
      <point x="376" y="647" type="curve"/>
      <point x="376" y="542" type="line"/>
      <point x="420" y="542" type="line"/>
      <point x="420" y="632" type="line"/>
      <point x="395" y="666"/>
      <point x="336" y="700"/>
    </contour>
    <contour>
      <point x="229" y="790" type="line"/>
      <point x="229" y="687" type="line"/>
      <point x="229" y="681" type="line"/>
      <point x="229" y="30" type="line"/>
      <point x="229" y="23" type="line"/>
      <point x="229" y="-120" type="line"/>
      <point x="260" y="-120" type="line"/>
      <point x="260" y="25" type="line"/>
      <point x="260" y="30" type="line"/>
      <point x="260" y="679" type="line"/>
      <point x="260" y="686" type="line"/>
      <point x="260" y="790" type="line"/>
    </contour>
  </outline>
</glyph>
<glyph name="summation" format="2">
  <advance width="445"/>
  <unicode hex="2211"/>
  <outline>
    <contour>
      <point x="21" y="-223" type="line"/>
      <point x="21" y="-193" type="line"/>
      <point x="252" y="278" type="line"/>
      <point x="248" y="260" type="line"/>
      <point x="21" y="680" type="line"/>
      <point x="21" y="710" type="line"/>
      <point x="405" y="710" type="line"/>
      <point x="405" y="544" type="line"/>
      <point x="380" y="544" type="line"/>
      <point x="373" y="639" type="line" smooth="yes"/>
      <point x="370" y="675"/>
      <point x="342" y="682"/>
      <point x="272" y="682" type="curve" smooth="yes"/>
      <point x="40" y="682" type="line"/>
      <point x="54" y="687" type="line"/>
      <point x="277" y="275" type="line"/>
      <point x="277" y="252" type="line"/>
      <point x="51" y="-204" type="line"/>
      <point x="45" y="-195" type="line"/>
      <point x="290" y="-195" type="line" smooth="yes"/>
      <point x="359" y="-195"/>
      <point x="388" y="-188"/>
      <point x="391" y="-152" type="curve" smooth="yes"/>
      <point x="398" y="-32" type="line"/>
      <point x="423" y="-32" type="line"/>
      <point x="423" y="-223" type="line"/>
    </contour>
  </outline>
</glyph>
<glyph name="one.den" format="2">
  <advance width="262"/>
  <unicode hex="E403"/>
  <outline>
    <contour>
      <point x="155" y="52" type="curve" smooth="yes"/>
      <point x="155" y="341" type="line"/>
      <point x="133" y="341" type="line"/>
      <point x="117" y="313"/>
      <point x="87" y="299"/>
      <point x="38" y="298" type="curve"/>
      <point x="38" y="264" type="line"/>
      <point x="83" y="263"/>
      <point x="118" y="279"/>
      <point x="127" y="313" type="curve"/>
      <point x="119" y="307" type="line"/>
      <point x="119" y="52" type="line" smooth="yes"/>
      <point x="119" y="34"/>
      <point x="100" y="30"/>
      <point x="72" y="30" type="curve" smooth="yes"/>
      <point x="46" y="30" type="line"/>
      <point x="46" y="0" type="line"/>
      <point x="226" y="0" type="line"/>
      <point x="226" y="30" type="line"/>
      <point x="206" y="30" type="line" smooth="yes"/>
      <point x="175" y="30"/>
      <point x="155" y="34"/>
    </contour>
  </outline>
</glyph>
<glyph name="seven.den" format="2">
  <advance width="261"/>
  <unicode hex="E409"/>
  <outline>
    <contour>
      <point x="115" y="314" type="line" smooth="yes"/>
      <point x="80" y="314"/>
      <point x="65" y="310"/>
      <point x="63" y="290" type="curve" smooth="yes"/>
      <point x="60" y="243" type="line"/>
      <point x="38" y="243" type="line"/>
      <point x="38" y="341" type="line"/>
      <point x="238" y="341" type="line"/>
      <point x="238" y="312" type="line"/>
      <point x="178" y="223"/>
      <point x="144" y="146"/>
      <point x="140" y="0" type="curve"/>
      <point x="99" y="0" type="line"/>
      <point x="108" y="144"/>
      <point x="176" y="274"/>
      <point x="223" y="328" type="curve"/>
      <point x="225" y="314" type="line"/>
    </contour>
  </outline>
</glyph>
<glyph name="at.uc" format="2">
  <advance width="694"/>
  <outline>
    <contour>
      <point x="362" y="-47" type="curve" smooth="yes"/>
      <point x="190" y="-47"/>
      <point x="70" y="89"/>
      <point x="70" y="304" type="curve" smooth="yes"/>
      <point x="70" y="534"/>
      <point x="203" y="707"/>
      <point x="384" y="707" type="curve" smooth="yes"/>
      <point x="541" y="707"/>
      <point x="631" y="578"/>
      <point x="631" y="412" type="curve" smooth="yes"/>
      <point x="631" y="234"/>
      <point x="571" y="143"/>
      <point x="509" y="143" type="curve" smooth="yes"/>
      <point x="466" y="143"/>
      <point x="446" y="177"/>
      <point x="456" y="249" type="curve"/>
      <point x="496" y="538" type="line"/>
      <point x="475" y="538" type="line"/>
      <point x="451" y="470" type="line"/>
      <point x="447" y="463" type="line"/>
      <point x="413" y="208" type="line"/>
      <point x="417" y="213" type="line"/>
      <point x="420" y="160"/>
      <point x="451" y="123"/>
      <point x="506" y="123" type="curve" smooth="yes"/>
      <point x="584" y="123"/>
      <point x="658" y="229"/>
      <point x="658" y="412" type="curve" smooth="yes"/>
      <point x="658" y="596"/>
      <point x="552" y="733"/>
      <point x="384" y="733" type="curve" smooth="yes"/>
      <point x="190" y="733"/>
      <point x="43" y="551"/>
      <point x="43" y="304" type="curve" smooth="yes"/>
      <point x="43" y="71"/>
      <point x="177" y="-73"/>
      <point x="362" y="-73" type="curve" smooth="yes"/>
      <point x="449" y="-73"/>
      <point x="524" y="-38"/>
      <point x="567" y="-5" type="curve"/>
      <point x="559" y="20" type="line"/>
      <point x="514" y="-13"/>
      <point x="447" y="-47"/>
    </contour>
    <contour>
      <point x="322" y="119" type="curve" smooth="yes"/>
      <point x="375" y="119"/>
      <point x="404" y="164"/>
      <point x="443" y="226" type="curve"/>
      <point x="437" y="260" type="line"/>
      <point x="400" y="193"/>
      <point x="370" y="145"/>
      <point x="323" y="145" type="curve" smooth="yes"/>
      <point x="274" y="145"/>
      <point x="248" y="192"/>
      <point x="248" y="291" type="curve" smooth="yes"/>
      <point x="248" y="400"/>
      <point x="299" y="518"/>
      <point x="372" y="518" type="curve" smooth="yes"/>
      <point x="414" y="518"/>
      <point x="440" y="491"/>
      <point x="457" y="401" type="curve"/>
      <point x="466" y="451" type="line"/>
      <point x="453" y="515"/>
      <point x="421" y="544"/>
      <point x="374" y="544" type="curve" smooth="yes"/>
      <point x="276" y="544"/>
      <point x="209" y="423"/>
      <point x="209" y="291" type="curve" smooth="yes"/>
      <point x="209" y="181"/>
      <point x="256" y="119"/>
    </contour>
  </outline>
</glyph>
<glyph name="breve_tilde" format="2">
  <advance width="405"/>
  <anchor x="203" y="524" name="_top"/>
  <outline>
    <contour>
      <point x="252" y="776" type="curve" smooth="yes"/>
      <point x="290" y="776"/>
      <point x="309" y="811"/>
      <point x="324" y="873" type="curve"/>
      <point x="300" y="881" type="line"/>
      <point x="288" y="835"/>
      <point x="279" y="807"/>
      <point x="256" y="807" type="curve" smooth="yes"/>
      <point x="219" y="807"/>
      <point x="199" y="885"/>
      <point x="143" y="885" type="curve" smooth="yes"/>
      <point x="105" y="885"/>
      <point x="83" y="851"/>
      <point x="73" y="785" type="curve"/>
      <point x="97" y="776" type="line"/>
      <point x="105" y="826"/>
      <point x="115" y="853"/>
      <point x="139" y="853" type="curve" smooth="yes"/>
      <point x="174" y="853"/>
      <point x="193" y="776"/>
    </contour>
    <contour>
      <point x="204" y="595" type="curve" smooth="yes"/>
      <point x="148" y="595"/>
      <point x="109" y="640"/>
      <point x="105" y="722" type="curve"/>
      <point x="132" y="722" type="line"/>
      <point x="139" y="658"/>
      <point x="163" y="633"/>
      <point x="205" y="633" type="curve" smooth="yes"/>
      <point x="246" y="633"/>
      <point x="271" y="658"/>
      <point x="278" y="722" type="curve"/>
      <point x="304" y="722" type="line"/>
      <point x="300" y="640"/>
      <point x="261" y="595"/>
    </contour>
  </outline>
</glyph>
<glyph name="commaaccent" format="2">
  <advance width="403"/>
  <anchor x="194" y="33" name="_bottom"/>
  <outline>
    <contour>
      <point x="183" y="-264" type="line"/>
      <point x="223" y="-224"/>
      <point x="242" y="-178"/>
      <point x="242" y="-130" type="curve" smooth="yes"/>
      <point x="242" y="-98"/>
      <point x="227" y="-84"/>
      <point x="208" y="-84" type="curve" smooth="yes"/>
      <point x="192" y="-84"/>
      <point x="178" y="-97"/>
      <point x="178" y="-116" type="curve" smooth="yes"/>
      <point x="178" y="-135"/>
      <point x="190" y="-149"/>
      <point x="209" y="-149" type="curve" smooth="yes"/>
      <point x="220" y="-149"/>
      <point x="228" y="-142"/>
      <point x="231" y="-127" type="curve"/>
      <point x="222" y="-136" type="line"/>
      <point x="221" y="-170"/>
      <point x="198" y="-213"/>
      <point x="159" y="-246" type="curve"/>
    </contour>
  </outline>
</glyph>
<glyph name="fi.alt" format="2">
  <advance width="509"/>
  <outline>
    <contour>
      <point x="29" y="508" type="line"/>
      <point x="29" y="483" type="line"/>
      <point x="359" y="483" type="line"/>
      <point x="359" y="508" type="line"/>
    </contour>
    <contour>
      <point x="377" y="36" type="line" smooth="yes"/>
      <point x="377" y="29"/>
      <point x="341" y="26"/>
      <point x="318" y="26" type="curve" smooth="yes"/>
      <point x="309" y="26" type="line"/>
      <point x="309" y="0" type="line"/>
      <point x="482" y="0" type="line"/>
      <point x="482" y="26" type="line"/>
      <point x="481" y="26" type="line" smooth="yes"/>
      <point x="442" y="26"/>
      <point x="415" y="33"/>
      <point x="415" y="62" type="curve" smooth="yes"/>
      <point x="415" y="508" type="line"/>
      <point x="309" y="508" type="line"/>
      <point x="309" y="483" type="line"/>
      <point x="317" y="483" type="line" smooth="yes"/>
      <point x="359" y="483"/>
      <point x="377" y="469"/>
      <point x="377" y="440" type="curve" smooth="yes"/>
    </contour>
    <contour>
      <point x="112" y="62" type="line" smooth="yes"/>
      <point x="112" y="33"/>
      <point x="86" y="26"/>
      <point x="42" y="26" type="curve" smooth="yes"/>
      <point x="33" y="26" type="line"/>
      <point x="33" y="0" type="line"/>
      <point x="236" y="0" type="line"/>
      <point x="236" y="26" type="line"/>
      <point x="226" y="26" type="line" smooth="yes"/>
      <point x="183" y="26"/>
      <point x="150" y="29"/>
      <point x="150" y="36" type="curve" smooth="yes"/>
      <point x="150" y="579" type="line" smooth="yes"/>
      <point x="150" y="693"/>
      <point x="202" y="723"/>
      <point x="276" y="723" type="curve" smooth="yes"/>
      <point x="326" y="723"/>
      <point x="364" y="710"/>
      <point x="389" y="676" type="curve"/>
      <point x="394" y="705"/>
      <point x="382" y="704"/>
      <point x="365" y="727" type="curve"/>
      <point x="365" y="640" type="line"/>
      <point x="408" y="640" type="line"/>
      <point x="408" y="707" type="line"/>
      <point x="386" y="731"/>
      <point x="343" y="752"/>
      <point x="276" y="752" type="curve" smooth="yes"/>
      <point x="182" y="752"/>
      <point x="112" y="708"/>
      <point x="112" y="579" type="curve" smooth="yes"/>
    </contour>
  </outline>
</glyph>
<glyph name="lira.proportional" format="2">
  <advance width="496"/>
  <outline>
    <contour>
      <point x="40" y="427" type="line"/>
      <point x="40" y="398" type="line"/>
      <point x="341" y="398" type="line"/>
      <point x="341" y="427" type="line"/>
    </contour>
    <contour>
      <point x="40" y="3" type="line"/>
      <point x="142" y="27"/>
      <point x="199" y="92"/>
      <point x="199" y="208" type="curve" smooth="yes"/>
      <point x="199" y="321"/>
      <point x="131" y="408"/>
      <point x="131" y="525" type="curve" smooth="yes"/>
      <point x="131" y="630"/>
      <point x="186" y="690"/>
      <point x="274" y="690" type="curve" smooth="yes"/>
      <point x="344" y="690"/>
      <point x="379" y="653"/>
      <point x="397" y="628" type="curve"/>
      <point x="400" y="624"/>
      <point x="396" y="663"/>
      <point x="381" y="664" type="curve"/>
      <point x="381" y="572" type="line"/>
      <point x="424" y="572" type="line"/>
      <point x="424" y="655" type="line"/>
      <point x="406" y="672"/>
      <point x="359" y="718"/>
      <point x="274" y="718" type="curve" smooth="yes"/>
      <point x="162" y="718"/>
      <point x="91" y="640"/>
      <point x="91" y="525" type="curve" smooth="yes"/>
      <point x="91" y="399"/>
      <point x="164" y="301"/>
      <point x="164" y="208" type="curve" smooth="yes"/>
      <point x="164" y="101"/>
      <point x="122" y="53"/>
      <point x="40" y="31" type="curve"/>
    </contour>
    <contour>
      <point x="341" y="-2" type="curve" smooth="yes"/>
      <point x="407" y="-2"/>
      <point x="443" y="45"/>
      <point x="461" y="124" type="curve"/>
      <point x="436" y="137" type="line"/>
      <point x="418" y="70"/>
      <point x="395" y="36"/>
      <point x="346" y="36" type="curve" smooth="yes"/>
      <point x="293" y="36"/>
      <point x="242" y="81"/>
      <point x="181" y="150" type="curve"/>
      <point x="177" y="154"/>
      <point x="175" y="133"/>
      <point x="165" y="120" type="curve"/>
      <point x="235" y="52"/>
      <point x="276" y="-2"/>
    </contour>
    <contour>
      <point x="40" y="272" type="line"/>
      <point x="40" y="243" type="line"/>
      <point x="341" y="243" type="line"/>
      <point x="341" y="272" type="line"/>
    </contour>
  </outline>
</glyph>
<glyph name="naira.proportional" format="2">
  <advance width="583"/>
  <outline>
    <contour>
      <point x="132" y="702" type="line"/>
      <point x="430" y="0" type="line"/>
      <point x="474" y="0" type="line"/>
      <point x="474" y="640" type="line" smooth="yes"/>
      <point x="474" y="669"/>
      <point x="502" y="681"/>
      <point x="542" y="681" type="curve" smooth="yes"/>
      <point x="552" y="681" type="line"/>
      <point x="552" y="710" type="line"/>
      <point x="359" y="710" type="line"/>
      <point x="359" y="681" type="line"/>
      <point x="370" y="681" type="line" smooth="yes"/>
      <point x="405" y="681"/>
      <point x="444" y="673"/>
      <point x="444" y="666" type="curve" smooth="yes"/>
      <point x="444" y="27" type="line"/>
      <point x="455" y="26" type="line"/>
      <point x="165" y="710" type="line"/>
      <point x="33" y="710" type="line"/>
      <point x="33" y="681" type="line"/>
      <point x="42" y="681" type="line" smooth="yes"/>
      <point x="81" y="681"/>
      <point x="110" y="674"/>
      <point x="110" y="645" type="curve" smooth="yes"/>
      <point x="110" y="70" type="line" smooth="yes"/>
      <point x="110" y="41"/>
      <point x="81" y="29"/>
      <point x="42" y="29" type="curve" smooth="yes"/>
      <point x="33" y="29" type="line"/>
      <point x="33" y="0" type="line"/>
      <point x="226" y="0" type="line"/>
      <point x="226" y="29" type="line"/>
      <point x="215" y="29" type="line" smooth="yes"/>
      <point x="180" y="29"/>
      <point x="140" y="37"/>
      <point x="140" y="44" type="curve" smooth="yes"/>
      <point x="140" y="707" type="line"/>
    </contour>
    <contour>
      <point x="122" y="450" type="line"/>
      <point x="29" y="450" type="line"/>
      <point x="29" y="421" type="line"/>
      <point x="122" y="421" type="line"/>
    </contour>
    <contour>
      <point x="461" y="257" type="line"/>
      <point x="555" y="257" type="line"/>
      <point x="555" y="286" type="line"/>
      <point x="460" y="286" type="line"/>
    </contour>
    <contour>
      <point x="29" y="257" type="line"/>
      <point x="338" y="257" type="line"/>
      <point x="325" y="286" type="line"/>
      <point x="130" y="286" type="line"/>
      <point x="121" y="286" type="line"/>
      <point x="29" y="286" type="line"/>
    </contour>
    <contour>
      <point x="555" y="421" type="line"/>
      <point x="555" y="450" type="line"/>
      <point x="260" y="450" type="line"/>
      <point x="273" y="421" type="line"/>
      <point x="455" y="421" type="line"/>
      <point x="461" y="421" type="line"/>
    </contour>
  </outline>
</glyph>
<glyph name="two.oldtab" format="2">
  <advance width="452"/>
  <outline>
    <contour>
      <point x="408" y="0" type="line"/>
      <point x="48" y="0" type="line"/>
      <point x="48" y="34" type="line"/>
      <point x="215" y="165"/>
      <point x="345" y="226"/>
      <point x="345" y="387" type="curve" smooth="yes"/>
      <point x="345" y="486"/>
      <point x="300" y="529"/>
      <point x="232" y="529" type="curve" smooth="yes"/>
      <point x="170" y="529"/>
      <point x="122" y="497"/>
      <point x="90" y="454" type="curve"/>
      <point x="101" y="485"/>
      <point x="97" y="487"/>
      <point x="116" y="492" type="curve"/>
      <point x="116" y="394" type="line"/>
      <point x="73" y="394" type="line"/>
      <point x="73" y="485" type="line"/>
      <point x="101" y="515"/>
      <point x="156" y="558"/>
      <point x="232" y="558" type="curve" smooth="yes"/>
      <point x="321" y="558"/>
      <point x="385" y="502"/>
      <point x="385" y="387" type="curve" smooth="yes"/>
      <point x="385" y="220"/>
      <point x="232" y="137"/>
      <point x="75" y="25" type="curve"/>
      <point x="71" y="27"/>
      <point x="70" y="27"/>
      <point x="71" y="30" type="curve"/>
      <point x="408" y="30" type="line"/>
    </contour>
  </outline>
</glyph>
<glyph name="zero.propslash" format="2">
  <advance width="480"/>
  <outline>
    <contour>
      <point x="104" y="130" type="line"/>
      <point x="390" y="453" type="line"/>
      <point x="378" y="479" type="line"/>
      <point x="90" y="153" type="line"/>
    </contour>
    <contour>
      <point x="240" y="-11" type="curve" smooth="yes"/>
      <point x="360" y="-11"/>
      <point x="439" y="117"/>
      <point x="439" y="305" type="curve" smooth="yes"/>
      <point x="439" y="491"/>
      <point x="360" y="619"/>
      <point x="240" y="619" type="curve" smooth="yes"/>
      <point x="119" y="619"/>
      <point x="40" y="491"/>
      <point x="40" y="305" type="curve" smooth="yes"/>
      <point x="40" y="117"/>
      <point x="119" y="-11"/>
    </contour>
    <contour>
      <point x="240" y="18" type="curve" smooth="yes"/>
      <point x="135" y="18"/>
      <point x="80" y="129"/>
      <point x="80" y="305" type="curve" smooth="yes"/>
      <point x="80" y="478"/>
      <point x="135" y="590"/>
      <point x="240" y="590" type="curve" smooth="yes"/>
      <point x="344" y="590"/>
      <point x="399" y="478"/>
      <point x="399" y="305" type="curve" smooth="yes"/>
      <point x="399" y="128"/>
      <point x="344" y="18"/>
    </contour>
  </outline>
</glyph>
